Coordinates
version=1
nRows=24
nColumns=24
inDegrees=yes

Units are S.I. units (second, meters, Newtons, ...)
Angles are in degrees.

endheader
time	pelvis_tilt	pelvis_list	pelvis_rotation	pelvis_tx	pelvis_ty	pelvis_tz	hip_flexion_r	hip_adduction_r	hip_rotation_r	knee_angle_r	ankle_angle_r	subtalar_angle_r	mtp_angle_r	hip_flexion_l	hip_adduction_l	hip_rotation_l	knee_angle_l	ankle_angle_l	subtalar_angle_l	mtp_angle_l	lumbar_extension	lumbar_bending	lumbar_rotation
14.46000000	4.84455933	-1.84559258	-0.77772078	0.60102028	1.04559875	-0.02160049	10.23739856	-2.90617367	-6.95037445	-16.84619221	13.31161289	-0.00000082	0.00000000	27.29152895	1.38076320	0.20135362	-72.67022975	-2.72361558	0.00000249	0.00000000	-19.54310531	-0.47001089	-4.72635202
14.47000000	4.84455933	-1.84559258	-0.77772078	0.60102028	1.04559875	-0.02160049	9.49369297	-2.90617367	-6.95037445	-16.53731977	13.59143805	-0.00000082	0.00000000	28.38714970	1.38076320	0.20135362	-71.74757350	-1.47335649	0.00000249	0.00000000	-19.54310531	-0.47001089	-4.72635202
14.48000000	4.84455933	-1.84559258	-0.77772078	0.60102028	1.04559875	-0.02160049	8.77258685	-2.90617367	-6.95037445	-16.26369717	13.90167219	-0.00000082	0.00000000	29.39526985	1.38076320	0.20135362	-70.54223533	-0.43739666	0.00000249	0.00000000	-19.54310531	-0.47001089	-4.72635202
14.49000000	4.84455933	-1.84559258	-0.77772078	0.60102028	1.04559875	-0.02160049	8.07404744	-2.90617367	-6.95037445	-16.02460548	14.24053524	-0.00000082	0.00000000	30.31262396	1.38076320	0.20135362	-69.06498840	0.41208214	0.00000249	0.00000000	-19.54310531	-0.47001089	-4.72635202
14.50000000	4.84455933	-1.84559258	-0.77772078	0.60102028	1.04559875	-0.02160049	7.39613335	-2.90617367	-6.95037445	-15.81812824	14.60514033	-0.00000082	0.00000000	31.13187280	1.38076320	0.20135362	-67.31811089	1.10285636	0.00000249	0.00000000	-19.54310531	-0.47001089	-4.72635202
14.51000000	4.84455933	-1.84559258	-0.77772078	0.60102028	1.04559875	-0.02160049	6.73503416	-2.90617367	-6.95037445	-15.64088338	14.99166212	-0.00000082	0.00000000	31.84262463	1.38076320	0.20135362	-65.29678366	1.65717247	0.00000249	0.00000000	-19.54310531	-0.47001089	-4.72635202
14.52000000	4.84455933	-1.84559258	-0.77772078	0.60102028	1.04559875	-0.02160049	6.08532358	-2.90617367	-6.95037445	-15.48786798	15.39540957	-0.00000082	0.00000000	32.43304389	1.38076320	0.20135362	-62.99186784	2.08869191	0.00000249	0.00000000	-19.54310531	-0.47001089	-4.72635202
14.53000000	4.84455933	-1.84559258	-0.77772078	0.60102028	1.04559875	-0.02160049	5.44039921	-2.90617367	-6.95037445	-15.35248202	15.81082294	-0.00000082	0.00000000	32.89179930	1.38076320	0.20135362	-60.39367991	2.40200422	0.00000249	0.00000000	-19.54310531	-0.47001089	-4.72635202
14.54000000	4.84455933	-1.84559258	-0.77772078	0.60102028	1.04559875	-0.02160049	4.79306929	-2.90617367	-6.95037445	-15.22678261	16.23143780	-0.00000082	0.00000000	33.21006847	1.38076320	0.20135362	-57.49628166	2.59441894	0.00000249	0.00000000	-19.54310531	-0.47001089	-4.72635202
14.55000000	4.84455933	-1.84559258	-0.77772078	0.60102028	1.04559875	-0.02160049	4.13623694	-2.90617367	-6.95037445	-15.10199419	16.64988147	-0.00000082	0.00000000	33.38331914	1.38076320	0.20135362	-54.30175646	2.65941058	0.00000249	0.00000000	-19.54310531	-0.47001089	-4.72635202
14.56000000	4.84455933	-1.84559258	-0.77772078	0.60102028	1.04559875	-0.02160049	3.46362200	-2.90617367	-6.95037445	-14.96926434	17.05797884	-0.00000082	0.00000000	33.41262502	1.38076320	0.20135362	-50.82395091	2.59088889	0.00000249	0.00000000	-19.54310531	-0.47001089	-4.72635202
14.57000000	4.84455933	-1.84559258	-0.77772078	0.60102028	1.04559875	-0.02160049	2.77045241	-2.90617367	-6.95037445	-14.82061189	17.44704100	-0.00000082	0.00000000	33.30534197	1.38076320	0.20135362	-47.09122060	2.38741634	0.00000249	0.00000000	-19.54310531	-0.47001089	-4.72635202
14.58000000	4.84455933	-1.84559258	-0.77772078	0.60102028	1.04559875	-0.02160049	2.05405140	-2.90617367	-6.95037445	-14.64997331	17.80838611	-0.00000082	0.00000000	33.07505877	1.38076320	0.20135362	-43.14782498	2.05558207	0.00000249	0.00000000	-19.54310531	-0.47001089	-4.72635202
14.59000000	4.84455933	-1.84559258	-0.77772078	0.60102028	1.04559875	-0.02160049	1.31424869	-2.90617367	-6.95037445	-14.45422334	18.13410230	-0.00000082	0.00000000	32.74083240	1.38076320	0.20135362	-39.05375983	1.61193322	0.00000249	0.00000000	-19.54310531	-0.47001089	-4.72635202
14.60000000	4.84455933	-1.84559258	-0.77772078	0.60102028	1.04559875	-0.02160049	0.55355473	-2.90617367	-6.95037445	-14.23403511	18.41801066	-0.00000082	0.00000000	32.32580947	1.38076320	0.20135362	-34.88298383	1.08312053	0.00000249	0.00000000	-19.54310531	-0.47001089	-4.72635202
14.61000000	4.84455933	-1.84559258	-0.77772078	0.60102028	1.04559875	-0.02160049	-0.22294062	-2.90617367	-6.95037445	-13.99445621	18.65672928	-0.00000082	0.00000000	31.85540970	1.38076320	0.20135362	-30.72017109	0.50419611	0.00000249	0.00000000	-19.54310531	-0.47001089	-4.72635202
14.62000000	4.84455933	-1.84559258	-0.77772078	0.60102028	1.04559875	-0.02160049	-1.00795115	-2.90617367	-6.95037445	-13.74510935	18.85068502	-0.00000082	0.00000000	31.35529783	1.38076320	0.20135362	-26.65628521	-0.08472255	0.00000249	0.00000000	-19.54310531	-0.47001089	-4.72635202
14.63000000	4.84455933	-1.84559258	-0.77772078	0.60102028	1.04559875	-0.02160049	-1.79262572	-2.90617367	-6.95037445	-13.49997106	19.00487745	-0.00000082	0.00000000	30.84939228	1.38076320	0.20135362	-22.78340259	-0.64296263	0.00000249	0.00000000	-19.54310531	-0.47001089	-4.72635202
14.64000000	4.84455933	-1.84559258	-0.77772078	0.60102028	1.04559875	-0.02160049	-2.56735275	-2.90617367	-6.95037445	-13.27673352	19.12918037	-0.00000082	0.00000000	30.35815132	1.38076320	0.20135362	-19.18929595	-1.13432896	0.00000249	0.00000000	-19.54310531	-0.47001089	-4.72635202
14.65000000	4.84455933	-1.84559258	-0.77772078	0.60102028	1.04559875	-0.02160049	-3.32262681	-2.90617367	-6.95037445	-13.09580369	19.23797969	-0.00000082	0.00000000	29.89734110	1.38076320	0.20135362	-15.95230866	-1.53189881	0.00000249	0.00000000	-19.54310531	-0.47001089	-4.72635202
14.66000000	4.84455933	-1.84559258	-0.77772078	0.60102028	1.04559875	-0.02160049	-4.04984538	-2.90617367	-6.95037445	-12.97903603	19.34899896	-0.00000082	0.00000000	29.47742454	1.38076320	0.20135362	-13.13700202	-1.82181541	0.00000249	0.00000000	-19.54310531	-0.47001089	-4.72635202
14.67000000	4.84455933	-1.84559258	-0.77772078	0.60102028	1.04559875	-0.02160049	-4.74190455	-2.90617367	-6.95037445	-12.94832548	19.48125413	-0.00000082	0.00000000	29.10362135	1.38076320	0.20135362	-10.79094604	-2.00543463	0.00000249	0.00000000	-19.54310531	-0.47001089	-4.72635202
14.68000000	4.84455933	-1.84559258	-0.77772078	0.60102028	1.04559875	-0.02160049	-5.39348861	-2.90617367	-6.95037445	-13.02420390	19.65220224	-0.00000082	0.00000000	28.77658635	1.38076320	0.20135362	-8.94286935	-2.09940367	0.00000249	0.00000000	-19.54310531	-0.47001089	-4.72635202
14.69000000	4.84455933	-1.84559258	-0.77772078	0.60102028	1.04559875	-0.02160049	-6.00099900	-2.90617367	-6.95037445	-13.22458390	19.87429275	-0.00000082	0.00000000	28.49355146	1.38076320	0.20135362	-7.60221244	-2.13354487	0.00000249	0.00000000	-19.54310531	-0.47001089	-4.72635202
